<svg width="170" height="106" viewBox="0 0 170 106" fill="none" xmlns="http://www.w3.org/2000/svg">
<path d="M12.1128 51.2028C33.8357 39.0659 32.4285 1.33701 2.87839 4.94283C2.87839 4.41515 2.79045 3.79923 2.79045 3.27184C2.7025 1.5129 0.152041 1.5129 0.152041 3.27184C-0.375639 17.871 0.591775 32.3822 1.2074 46.8934C1.29535 48.1247 1.29535 49.268 1.29535 50.4993C0.591775 51.2908 0.591775 52.61 1.29535 53.4895C1.3833 62.6356 1.03151 72.1339 2.7025 80.8406C3.05429 82.5995 6.04448 82.6878 6.39626 80.8406C6.48421 80.4888 6.48421 80.1373 6.48421 79.7852C6.48421 79.7852 6.48421 79.8735 6.57216 79.8735C13.7838 88.1405 21.787 77.4986 23.8097 70.3749C26.8879 59.9972 20.5557 53.753 12.1128 51.2028ZM5.25295 49.1801C5.16501 48.4765 5.16501 47.685 5.07706 46.9814C4.19759 33.7897 3.58197 20.7732 2.96634 7.66918C31.1093 5.38227 27.9432 41.7043 5.25295 49.1801ZM8.59493 77.4986C7.97931 77.1469 7.36368 77.2348 6.836 77.5869C7.53957 70.1111 6.48421 62.1082 5.69269 54.4566C28.4709 56.0396 16.9499 82.2478 8.59493 77.4986Z" fill="#FD3434"/>
<path d="M69.8059 14.3529C69.718 11.5386 65.4086 11.4506 65.4086 14.3529C65.2327 27.5449 66.9037 40.8248 66.9037 54.0169C66.9037 61.0526 62.4184 100.453 50.3697 79.8732C38.9366 60.349 42.6303 29.8318 42.2786 8.02098C42.2786 6.26205 39.6402 6.26205 39.5522 8.02098C39.1125 23.4117 38.7607 38.8024 40.0799 54.1928C40.9594 65.1861 42.1027 82.5116 52.7442 89.0197C77.4573 104.147 70.0697 22.356 69.8059 14.3529Z" fill="#FD3434"/>
<path d="M109.998 11.8024C109.294 10.1317 106.568 11.0109 106.656 12.6822C106.832 22.1804 108.503 31.6787 108.679 41.2649C108.943 51.3785 110.437 76.7954 98.3886 81.4565C81.9426 87.7884 83.1738 24.7309 82.91 15.8482C82.822 14.2652 80.5354 14.2652 80.4475 15.8482C79.8318 27.8969 74.3791 89.1959 97.8609 85.7662C110.437 83.9191 111.757 65.802 112.548 56.0399C113.691 43.2876 115.274 24.1152 109.998 11.8024Z" fill="#FD3434"/>
<path d="M145.265 17.4313C145.176 14.6167 140.867 14.6167 140.955 17.4313C141.043 27.7211 142.186 38.0108 142.098 48.3003C142.011 54.2807 141.395 60.1731 139.812 65.8897C138.229 71.5183 130.314 80.8406 125.477 73.0134C120.551 65.0099 122.222 51.6423 122.574 42.7597C122.926 33.8771 123.981 24.9065 123.806 15.9359C123.806 14.3526 121.431 14.3526 121.343 15.9359C120.639 28.952 118.529 41.7923 118.441 54.8963C118.441 61.6682 118.089 76.971 126.444 79.9612C153.004 89.3715 145.528 28.1608 145.265 17.4313Z" fill="#FD3434"/>
<path d="M156.961 1.77645C156.873 0.193412 154.499 0.193412 154.499 1.77645C153.971 27.8087 156.258 54.5445 158.369 80.4888C158.632 83.2152 162.414 83.2152 162.59 80.4888C163.997 54.4566 158.017 27.721 156.961 1.77645Z" fill="#FD3434"/>
<path d="M167.427 88.404C164.701 89.8112 162.238 91.746 159.6 93.417C158.72 91.6581 157.841 89.8109 157.137 87.964C156.434 86.2051 153.619 86.9087 154.235 88.7555C154.938 90.9542 155.818 93.0649 156.697 95.1757C154.059 96.6707 151.333 98.1658 148.606 99.5733C146.759 100.54 148.343 103.179 150.19 102.299C152.74 101.068 155.554 99.8371 158.193 98.5176C158.369 98.8697 158.545 99.3094 158.72 99.7489C159.688 101.772 161.007 105.817 163.821 105.377C164.261 105.29 164.613 104.85 164.789 104.41C165.316 102.299 162.854 99.5733 161.886 97.902C161.711 97.5502 161.534 97.1984 161.359 96.9346C164.349 95.2639 167.163 93.4167 169.45 91.218C170.945 89.6353 169.098 87.4366 167.427 88.404Z" fill="#FD3434"/>
</svg>
