<svg width="679" height="476" viewBox="0 0 679 476" fill="none" xmlns="http://www.w3.org/2000/svg">
<path d="M681.486 229.587C679.343 229.769 677.26 229.985 675.215 230.221C677.731 230.719 679.887 230.559 681.486 229.587Z" fill="#494957"/>
<path d="M676.694 141.607C574.16 80.2835 605.8 20.4409 629.586 3.23286C456.801 73.654 536.979 249.006 511.129 267.714C486.645 286.155 447.657 261.564 423.985 238.128C444.823 268.475 415.564 289.069 375.661 255.322C400.757 301.788 430.895 332.459 349.726 316.031C260.404 297.961 100.069 241.658 23.3515 316.262C83.1054 311.49 165.964 352.823 181.027 400.011C213.381 371.203 294.822 407.173 310.857 451.468C312.46 403.52 396.662 391.603 453.682 434.932C409.183 357.519 524.497 368.995 566.734 418.051C497.384 313.606 583.962 308.734 642.518 331.891C598.746 265.022 617.669 236.873 675.208 230.221C648.78 225.013 581.527 145.849 676.694 141.607ZM417.636 297.912C415.211 298.124 413.072 296.334 412.859 293.903C412.647 291.478 414.442 289.338 416.868 289.126C419.293 288.914 421.433 290.709 421.645 293.135C421.857 295.565 420.061 297.7 417.636 297.912ZM443.936 287.429C441.508 287.642 439.368 285.846 439.156 283.421C438.944 280.996 440.74 278.859 443.167 278.646C445.593 278.434 447.73 280.227 447.942 282.652C448.154 285.078 446.361 287.217 443.936 287.429Z" fill="#494957"/>
</svg>
