<svg width="348" height="280" viewBox="0 0 348 280" fill="none" xmlns="http://www.w3.org/2000/svg">
<path d="M347.634 146.149C321.989 101.495 261.912 101.674 233.218 142.383C217.078 118.352 184.618 110.103 154.67 116.918C152.338 117.456 151.621 119.428 152.159 121.042C128.666 124.449 106.787 135.927 94.2338 153.861V153.681C71.279 120.145 13.7126 108.848 0.0831539 156.371C-0.634185 159.061 3.49051 161.034 4.74585 158.344C22.5 117.276 66.7956 125.526 91.1852 156.012C91.5438 156.371 91.9025 156.55 92.4405 156.73C88.1365 163.545 85.0878 171.255 83.6531 179.864C42.5855 156.371 -25.9204 205.688 10.4846 249.087C12.2779 251.239 16.0439 248.369 14.4299 246.039C-13.3669 204.792 44.0201 164.083 81.8597 183.271C82.3978 183.451 82.7564 183.451 83.2944 183.451C82.9358 187.576 82.7564 191.88 83.1151 196.363C83.2944 199.411 83.8324 202.46 84.5498 205.15C47.7862 194.928 19.6306 254.826 57.2909 271.324C60.3396 272.58 62.6709 268.814 59.8016 267.02C31.2874 247.831 53.3455 201.384 85.8051 209.992C97.6412 245.141 142.296 258.412 177.086 252.493C204.883 247.831 227.838 231.153 238.06 207.66C249.358 202.818 260.836 215.551 266.574 225.414C275.72 240.837 277.514 260.026 265.678 274.552C263.346 277.422 266.933 281.008 269.802 278.676C298.137 255.721 265.14 194.568 240.033 202.28C242.902 193.672 244.337 184.347 243.62 174.484C259.939 165.875 276.079 161.033 294.012 170C312.125 179.146 322.168 199.949 331.134 216.986C332.39 219.496 336.515 217.703 335.618 215.013C320.554 173.228 281.817 142.742 243.081 169.103C241.825 160.137 239.136 152.425 235.19 145.791C267.829 109.027 312.842 109.386 343.15 148.839C345.123 151.35 349.248 149.198 347.634 146.149ZM236.088 174.305C235.729 174.663 235.191 175.023 234.832 175.381C233.576 176.637 235.012 178.609 236.446 178.071C237.881 211.607 211.519 236.893 179.776 244.066C141.758 252.495 93.6958 236.175 90.1091 192.597C86.7018 152.068 126.873 130.547 161.126 125.526C162.381 125.346 162.919 124.27 162.919 123.194C197.889 118.89 230.707 133.596 235.908 172.332C236.088 173.049 236.088 173.767 236.088 174.305Z" fill="#494957"/>
<path d="M149.29 162.289C143.013 152.964 128.128 147.943 117.727 152.247C114.857 153.502 116.651 157.447 119.161 157.627C127.769 157.985 134.943 157.447 141.937 163.545C149.828 170.539 146.958 179.865 141.04 186.679C132.97 178.43 125.438 169.643 117.906 160.856C116.651 159.421 114.14 161.394 115.216 163.008C122.389 173.589 129.921 184.349 138.888 193.495C140.143 194.75 142.116 194.571 143.371 193.495C152.338 185.065 156.822 173.229 149.29 162.289Z" fill="#494957"/>
<path d="M216.361 162.11C207.573 151.529 194.482 148.481 183.722 157.806C173.859 166.235 172.962 182.375 180.494 192.418C181.39 193.494 182.646 193.673 183.542 193.135C184.26 193.673 185.156 193.853 186.233 193.315C192.33 190.625 197.71 186.32 202.553 182.017C206.139 178.789 210.981 175.023 211.878 170.001C212.416 167.311 209.367 165.339 207.215 167.311C203.808 170.539 201.297 174.305 198.069 177.533C193.765 181.837 189.102 185.782 183.902 188.831C179.956 180.044 180.315 170.359 187.309 163.186C195.2 154.937 205.243 159.241 211.698 166.773C214.388 170.001 219.051 165.338 216.361 162.11Z" fill="#494957"/>
<path d="M166.326 3.04022C165.25 -1.26439 158.615 0.52954 159.512 4.83357C163.995 26.1744 164.533 46.9772 163.278 68.4974C162.56 83.2028 158.077 99.5222 161.305 113.869C161.664 115.125 163.636 115.483 164.174 114.228C170.092 100.419 169.554 83.3821 170.63 68.4974C172.424 46.6185 171.886 24.381 166.326 3.04022Z" fill="#494957"/>
</svg>
