<svg width="42" height="48" viewBox="0 0 42 48" fill="none" xmlns="http://www.w3.org/2000/svg">
<path d="M9.125 19.1815C10.2446 19.1111 11.6249 19.1111 13.4 19.1111H28.6C30.3751 19.1111 31.7554 19.1111 32.875 19.1815M9.125 19.1815C7.72774 19.2693 6.73644 19.4668 5.89032 19.9104C4.54966 20.6135 3.45968 21.7352 2.77658 23.1151C2 24.684 2 26.7373 2 30.8444V34.2667C2 38.3738 2 40.4272 2.77658 41.996C3.45968 43.3759 4.54966 44.4976 5.89032 45.2007C7.41443 46 9.40962 46 13.4 46H28.6C32.5905 46 34.5855 46 36.1097 45.2007C37.4504 44.4976 38.5403 43.3759 39.2234 41.996C40 40.4272 40 38.3738 40 34.2667V30.8444C40 26.7373 40 24.684 39.2234 23.1151C38.5403 21.7352 37.4504 20.6135 36.1097 19.9104C35.2635 19.4668 34.2722 19.2693 32.875 19.1815M9.125 19.1815V14.2222C9.125 7.47208 14.4416 2 21 2C27.5583 2 32.875 7.47208 32.875 14.2222V19.1815" stroke="#FD3434" stroke-width="3" stroke-linecap="round" stroke-linejoin="round"/>
</svg>
